<svg xmlns="http://www.w3.org/2000/svg" width="24" height="24" fill="#C13584" viewBox="0 0 24 24">
  <path d="M12 2.2c3.2 0 3.584.012 4.85.07 1.17.056 1.97.24 2.43.402a4.92 4.92 0 011.77 1.025c.47.47.843 1.1 1.025 1.77.162.46.346 1.26.402 2.43.058 1.267.07 1.65.07 4.85s-.012 3.584-.07 4.85c-.056 1.17-.24 1.97-.402 2.43a4.92 4.92 0 01-1.025 1.77 4.92 4.92 0 01-1.77 1.025c-.46.162-1.26.346-2.43.402-1.267.058-1.65.07-4.85.07s-3.584-.012-4.85-.07c-1.17-.056-1.97-.24-2.43-.402a4.92 4.92 0 01-1.77-1.025A4.92 4.92 0 012.2 19.65c-.162-.46-.346-1.26-.402-2.43C1.74 15.954 1.728 15.57 1.728 12.37s.012-3.584.07-4.85c.056-1.17.24-1.97.402-2.43a4.92 4.92 0 011.025-1.77A4.92 4.92 0 015.32 2.672c.46-.162 1.26-.346 2.43-.402C8.416 2.212 8.8 2.2 12 2.2m0-2.2C8.74 0 8.332.013 7.052.072c-1.28.06-2.156.26-2.91.555a7.118 7.118 0 00-2.61 1.69A7.118 7.118 0 00.486 4.93C.19 5.685-.01 6.56.05 7.84.112 9.12.125 9.527.125 12.797c0 3.27-.013 3.678-.072 4.957-.06 1.28-.26 2.156-.555 2.91a7.118 7.118 0 00-1.69 2.61A7.118 7.118 0 002.14 23.514c.755.296 1.63.496 2.91.556 1.28.058 1.688.072 4.957.072s3.678-.013 4.957-.072c1.28-.06 2.156-.26 2.91-.556a7.118 7.118 0 002.61-1.69 7.118 7.118 0 001.69-2.61c.296-.755.496-1.63.556-2.91.058-1.28.072-1.688.072-4.957s-.013-3.678-.072-4.957c-.06-1.28-.26-2.156-.556-2.91a7.118 7.118 0 00-1.69-2.61A7.118 7.118 0 0019.07.627C18.315.33 17.44.13 16.16.072 14.88.013 14.473 0 11.203 0H12zM12 5.838A6.162 6.162 0 105.838 12 6.155 6.155 0 0012 5.838zm0 10.162A4 4 0 1116 12a4.005 4.005 0 01-4 4zm6.406-11.826a1.44 1.44 0 11-1.44-1.44 1.44 1.44 0 011.44 1.44z"/>
</svg>